<svg width="27" height="32" viewBox="0 0 28 33" fill="none" xmlns="http://www.w3.org/2000/svg" class="transform -translate-x-1/4 pointer-events-none md:translate-x-0"><path d="M0 3C0 1.34314 1.34315 0 3 0H22.8596C23.4119 0 23.8596 0.447715 23.8596 1V32.949H3C1.34314 32.949 0 31.6058 0 29.949V3Z" fill="#FFB9D6"></path><path fill-rule="evenodd" clip-rule="evenodd" d="M22.3596 1.5H3C2.17157 1.5 1.5 2.17157 1.5 3V29.949C1.5 30.7774 2.17157 31.449 3 31.449H22.3596V1.5ZM3 0C1.34315 0 0 1.34314 0 3V29.949C0 31.6058 1.34314 32.949 3 32.949H23.8596V1C23.8596 0.447715 23.4119 0 22.8596 0H3Z" fill="#31344B"></path><path d="M9.67898e-05 4.54538C9.67898e-05 4.54538 8.75592e-05 2.93336 0.999998 3.00006C1.99991 3.06676 0.499989 5.50001 2.99999 5.68184C8.10476 5.68185 22.3872 5.68184 26.2783 5.68184C26.8306 5.68184 27.2681 6.12955 27.2681 6.68184V31.95C27.2681 32.5022 26.8204 32.95 26.2681 32.95H3C1.34314 32.95 -6.31251e-06 31.6068 0 29.9499L9.67898e-05 4.54538Z" fill="white"></path><path fill-rule="evenodd" clip-rule="evenodd" d="M1.47289 4.54539C1.4578 4.46866 1.44699 4.39104 1.43904 4.31357C1.42372 4.16432 1.41898 4.0156 1.41448 3.87473C1.39956 3.40698 1.3874 3.0259 0.999998 3.00006C0.388015 2.95924 0.150592 3.54725 0.0584825 4.00964C9.54047e-05 4.30275 9.67898e-05 4.54538 9.67898e-05 4.54538L0 29.9499C-6.31251e-06 31.6068 1.34314 32.95 3 32.95H26.2681C26.8204 32.95 27.2681 32.5022 27.2681 31.95V6.68184C27.2681 6.12955 26.8306 5.68184 26.2783 5.68184L2.99999 5.68184C1.99035 5.6084 1.6331 5.16777 1.5001 4.66411C1.48978 4.62505 1.48071 4.58507 1.47289 4.54539ZM1.50009 6.82951L1.5 29.9499C1.5 30.7784 2.17157 31.45 3 31.45H25.7681V7.18184L2.94551 7.18184L2.89118 7.17789C2.39316 7.14166 1.91991 7.03359 1.50009 6.82951Z" fill="#31344B"></path><rect x="6" y="14" width="3" height="2" fill="#31344B"></rect><rect x="6" y="18" width="3" height="2" fill="#31344B"></rect><rect x="6" y="22" width="3" height="2" fill="#31344B"></rect><rect x="6" y="26" width="3" height="2" fill="#31344B"></rect><rect x="14" y="14" width="3" height="2" fill="#31344B"></rect><rect x="14" y="10" width="3" height="2" fill="#31344B"></rect><rect x="14" y="18" width="3" height="2" fill="#31344B"></rect><rect x="14" y="22" width="3" height="2" fill="#31344B"></rect><rect x="14" y="26" width="3" height="2" fill="#31344B"></rect><rect x="18" y="14" width="3" height="2" fill="#31344B"></rect><rect x="18" y="18" width="3" height="2" fill="#31344B"></rect><rect x="18" y="22" width="3" height="2" fill="#31344B"></rect><rect x="18" y="26" width="3" height="2" fill="#31344B"></rect><rect x="10" y="22" width="3" height="2" fill="#31344B"></rect><rect x="10" y="26" width="3" height="2" fill="#31344B"></rect></svg>